{
  "accessors": [
    {
      "bufferView": 2,
      "componentType": 5126,
      "count": 3264,
      "max": [
        0.86602997779846191,
        1,
        54.969551086425781
      ],
      "min": [
        -0.86602997779846191,
        -1,
        -1
      ],
      "type": "VEC3"
    },
    {
      "bufferView": 2,
      "byteOffset": 39168,
      "componentType": 5126,
      "count": 3264,
      "max": [
        1,
        1,
        1
      ],
      "min": [
        -1,
        -1,
        -1
      ],
      "type": "VEC3"
    },
    {
      "bufferView": 3,
      "componentType": 5126,
      "count": 3264,
      "max": [
        0,
        0,
        0,
        1
      ],
      "min": [
        0,
        0,
        0,
        1
      ],
      "type": "VEC4"
    },
    {
      "bufferView": 1,
      "componentType": 5126,
      "count": 3264,
      "max": [
        0,
        0
      ],
      "min": [
        0,
        0
      ],
      "type": "VEC2"
    },
    {
      "bufferView": 0,
      "componentType": 5125,
      "count": 7512,
      "max": [
        3263
      ],
      "min": [
        0
      ],
      "type": "SCALAR"
    },
    {
      "bufferView": 2,
      "byteOffset": 78336,
      "componentType": 5126,
      "count": 48,
      "max": [
        0.59406000375747681,
        0.67487001419067383,
        51.848659515380859
      ],
      "min": [
        -0.59406000375747681,
        -0.67487001419067383,
        44.431671142578125
      ],
      "type": "VEC3"
    },
    {
      "bufferView": 2,
      "byteOffset": 78912,
      "componentType": 5126,
      "count": 48,
      "max": [
        0.99728035926818848,
        0.86367565393447876,
        0.15452244877815247
      ],
      "min": [
        -0.99728035926818848,
        -0.86367565393447876,
        -0.073703043162822723
      ],
      "type": "VEC3"
    },
    {
      "bufferView": 3,
      "byteOffset": 52224,
      "componentType": 5126,
      "count": 48,
      "max": [
        0.8660351037979126,
        1,
        6.7090545599057805e-06,
        1
      ],
      "min": [
        -0.8660351037979126,
        -1,
        -0.00020201767620164901,
        1
      ],
      "type": "VEC4"
    },
    {
      "bufferView": 1,
      "byteOffset": 26112,
      "componentType": 5126,
      "count": 48,
      "max": [
        1.5297900438308716,
        0.98284000158309937
      ],
      "min": [
        -0.44556999206542969,
        0.12257000058889389
      ],
      "type": "VEC2"
    },
    {
      "bufferView": 0,
      "byteOffset": 30048,
      "componentType": 5125,
      "count": 72,
      "max": [
        47
      ],
      "min": [
        0
      ],
      "type": "SCALAR"
    },
    {
      "bufferView": 2,
      "byteOffset": 79488,
      "componentType": 5126,
      "count": 54,
      "max": [
        0.1060200035572052,
        0.12241999804973602,
        47.61322021484375
      ],
      "min": [
        -0.1060200035572052,
        -0.12241999804973602,
        46.110309600830078
      ],
      "type": "VEC3"
    },
    {
      "bufferView": 2,
      "byteOffset": 80136,
      "componentType": 5126,
      "count": 54,
      "max": [
        0.99919813871383667,
        0.86533206701278687,
        1
      ],
      "min": [
        -0.99919813871383667,
        -0.86533206701278687,
        -0.11594413220882416
      ],
      "type": "VEC3"
    },
    {
      "bufferView": 3,
      "byteOffset": 52992,
      "componentType": 5126,
      "count": 54,
      "max": [
        0,
        0,
        0,
        1
      ],
      "min": [
        0,
        0,
        0,
        1
      ],
      "type": "VEC4"
    },
    {
      "bufferView": 1,
      "byteOffset": 26496,
      "componentType": 5126,
      "count": 54,
      "max": [
        0,
        0
      ],
      "min": [
        0,
        0
      ],
      "type": "VEC2"
    },
    {
      "bufferView": 0,
      "byteOffset": 30336,
      "componentType": 5125,
      "count": 120,
      "max": [
        53
      ],
      "min": [
        0
      ],
      "type": "SCALAR"
    }
  ],
  "asset": {
    "extras": {
      "author": "Robin Butler (https://sketchfab.com/StarTrekGuy)",
      "license": "CC-BY-4.0 (http://creativecommons.org/licenses/by/4.0/)",
      "source": "https://sketchfab.com/models/0bc8eed63f654ed2adef2825d793f8d4",
      "title": "Old Lamp Post (Free!)"
    },
    "generator": "Sketchfab-3.41.1",
    "version": "2.0"
  },
  "bufferViews": [
    {
      "buffer": 0,
      "byteLength": 30816,
      "byteOffset": 0,
      "name": "floatBufferViews",
      "target": 34963
    },
    {
      "buffer": 0,
      "byteLength": 26928,
      "byteOffset": 30816,
      "byteStride": 8,
      "name": "floatBufferViews",
      "target": 34962
    },
    {
      "buffer": 0,
      "byteLength": 80784,
      "byteOffset": 57744,
      "byteStride": 12,
      "name": "floatBufferViews",
      "target": 34962
    },
    {
      "buffer": 0,
      "byteLength": 53856,
      "byteOffset": 138528,
      "byteStride": 16,
      "name": "floatBufferViews",
      "target": 34962
    }
  ],
  "buffers": [
    {
      "byteLength": 192384,
      "uri": "scene.bin"
    }
  ],
  "extensionsRequired": [
    "KHR_materials_pbrSpecularGlossiness"
  ],
  "extensionsUsed": [
    "KHR_materials_pbrSpecularGlossiness"
  ],
  "images": [
    {
      "uri": "textures/Light_Glass_diffuse.png"
    }
  ],
  "materials": [
    {
      "doubleSided": true,
      "extensions": {
        "KHR_materials_pbrSpecularGlossiness": {
          "diffuseFactor": [
            0,
            0,
            0,
            1
          ],
          "glossinessFactor": 0,
          "specularFactor": [
            0.00095309806109322183,
            0.0012228403206597852,
            0.00060677089525222182
          ]
        }
      },
      "name": "Lamp_Post"
    },
    {
      "alphaMode": "BLEND",
      "doubleSided": true,
      "emissiveFactor": [
        0,
        0,
        0
      ],
      "extensions": {
        "KHR_materials_pbrSpecularGlossiness": {
          "diffuseFactor": [
            0,
            0,
            0,
            1
          ],
          "diffuseTexture": {
            "index": 0,
            "texCoord": 0
          },
          "glossinessFactor": 1,
          "specularFactor": [
            1,
            1,
            1
          ]
        }
      },
      "name": "Light_Glass"
    },
    {
      "alphaMode": "BLEND",
      "doubleSided": true,
      "extensions": {
        "KHR_materials_pbrSpecularGlossiness": {
          "diffuseFactor": [
            0.067461061135290448,
            0.054922482090025065,
            0.017106637233011313,
            0.36151337039999998
          ],
          "glossinessFactor": 0,
          "specularFactor": [
            0.55663532159999995,
            0.55663532159999995,
            0.55663532159999995
          ]
        }
      },
      "name": "Light"
    }
  ],
  "meshes": [
    {
      "name": "Lamp post.001_0",
      "primitives": [
        {
          "attributes": {
            "NORMAL": 1,
            "POSITION": 0,
            "TANGENT": 2,
            "TEXCOORD_0": 3
          },
          "indices": 4,
          "material": 0,
          "mode": 4
        }
      ]
    },
    {
      "name": "Lamp post.001_1",
      "primitives": [
        {
          "attributes": {
            "NORMAL": 6,
            "POSITION": 5,
            "TANGENT": 7,
            "TEXCOORD_0": 8
          },
          "indices": 9,
          "material": 1,
          "mode": 4
        }
      ]
    },
    {
      "name": "Lamp post.001_2",
      "primitives": [
        {
          "attributes": {
            "NORMAL": 11,
            "POSITION": 10,
            "TANGENT": 12,
            "TEXCOORD_0": 13
          },
          "indices": 14,
          "material": 2,
          "mode": 4
        }
      ]
    }
  ],
  "nodes": [
    {
      "children": [
        1
      ],
      "name": "RootNode (gltf orientation matrix)",
      "rotation": [
        -0.70710678118654746,
        -0,
        -0,
        0.70710678118654757
      ]
    },
    {
      "children": [
        2
      ],
      "name": "RootNode (model correction matrix)"
    },
    {
      "children": [
        3
      ],
      "name": "Root"
    },
    {
      "children": [
        4,
        5,
        6
      ],
      "matrix": [
        0.20232,
        -0.11681000000000001,
        0,
        0,
        0.11681000000000001,
        0.20232,
        0,
        0,
        0,
        0,
        0.052660000000000012,
        0,
        0,
        0,
        0.050170000000000013,
        1
      ],
      "name": "Lamp post.001"
    },
    {
      "mesh": 0,
      "name": "Lamp post.001_0"
    },
    {
      "mesh": 1,
      "name": "Lamp post.001_1"
    },
    {
      "mesh": 2,
      "name": "Lamp post.001_2"
    }
  ],
  "samplers": [
    {
      "magFilter": 9729,
      "minFilter": 9987,
      "wrapS": 10497,
      "wrapT": 10497
    }
  ],
  "scene": 0,
  "scenes": [
    {
      "name": "OSG_Scene",
      "nodes": [
        0
      ]
    }
  ],
  "textures": [
    {
      "sampler": 0,
      "source": 0
    }
  ]
}

